<svg xmlns="http://www.w3.org/2000/svg" viewBox="0 0 301.919 66" width="301.919" height="66">
<path fill="#F9C059" d="M288.775 12.4 C288.783 12.332 288.796 12.265 288.796 12.195 C288.796 11.21 287.997 10.412 287.01 10.412 C286.026 10.412 285.227 11.21 285.227 12.195 C285.227 12.235 285.236 12.272 285.239 12.312 C279.02 13.18 274.198 19.186 274.198 23.531 L299.315 23.531 C299.315 19.303 294.749 13.511 288.775 12.4"/>
<path fill="#7DDD62" d="M109.005 51.266 L91.579 51.266 C87.686 51.266 84.519 48.099 84.519 44.205 L84.519 11.659 C84.519 11.382 84.295 11.159 84.019 11.159 L79.698 11.159 C79.422 11.159 79.198 11.382 79.198 11.659 L79.198 44.205 C79.198 51.033 84.753 56.586 91.579 56.586 L109.005 56.586 C109.281 56.586 109.505 56.363 109.505 56.086 L109.505 51.766 C109.505 51.49 109.281 51.266 109.005 51.266"/>
<path fill="#7DDD62" d="M144.507 16.479 C144.783 16.479 145.007 16.255 145.007 15.979 L145.007 11.659 C145.007 11.382 144.783 11.159 144.507 11.159 L115.2 11.159 C114.924 11.159 114.7 11.382 114.7 11.659 L114.7 56.086 C114.7 56.363 114.924 56.586 115.2 56.586 L144.507 56.586 C144.783 56.586 145.007 56.363 145.007 56.086 L145.007 51.766 C145.007 51.49 144.783 51.266 144.507 51.266 L120.021 51.266 L120.021 34.336 L142.634 34.336 C142.91 34.336 143.134 34.113 143.134 33.836 L143.134 29.516 C143.134 29.24 142.91 29.016 142.634 29.016 L120.021 29.016 L120.021 16.479 L144.507 16.479"/>
<path fill="#7DDD62" d="M166.33 51.266 L155.886 51.266 L155.886 16.551 L166.453 16.551 C175.479 16.551 182.823 24.337 182.823 33.909 C182.823 43.317 175.27 51.266 166.33 51.266 M181.52 17.861 C177.275 13.538 171.881 11.159 166.33 11.159 L151.064 11.159 C150.788 11.159 150.564 11.382 150.564 11.659 L150.564 56.086 C150.564 56.363 150.788 56.586 151.064 56.586 L166.33 56.586 C171.85 56.586 177.243 54.233 181.517 49.959 C185.79 45.686 188.143 39.986 188.143 33.909 C188.143 27.831 185.79 22.131 181.52 17.861"/>
<path fill="#F9C059" d="M196.579 55.816 L196.579 49.814 L212.022 49.814 C214.485 49.814 216.353 49.332 217.628 48.363 C218.901 47.394 219.538 45.972 219.538 44.099 C219.538 42.646 219.05 41.376 218.07 40.293 C217.091 39.209 215.253 37.982 212.558 36.613 L204.979 32.728 C202.2 31.318 200.136 29.693 198.789 27.849 C197.442 26.007 196.767 23.906 196.767 21.548 C196.767 18.16 197.999 15.486 200.463 13.527 C202.927 11.568 206.306 10.589 210.6 10.589 L223.676 10.589 L223.676 16.56 L208.611 16.56 C206.885 16.56 205.511 16.996 204.489 17.869 C203.468 18.744 202.958 19.896 202.958 21.328 C202.958 22.634 203.405 23.765 204.3 24.722 C205.194 25.681 207.337 27.033 210.727 28.781 L217.327 32.129 C220.212 33.603 222.344 35.287 223.724 37.181 C225.102 39.076 225.792 41.277 225.792 43.783 C225.792 47.593 224.491 50.552 221.891 52.656 C219.29 54.763 215.611 55.816 210.853 55.816 L196.579 55.816"/>
<path fill="#F9C059" d="M239.005 44.527 C239.048 47.002 239.879 48.922 241.497 50.248 C243.161 51.613 245.562 52.293 248.698 52.293 C251.835 52.293 254.241 51.613 255.915 50.248 C257.484 48.972 258.317 46.869 258.415 44.527 C258.415 44.527 258.342 43.185 261.336 43.185 C264.33 43.185 264.427 44.527 264.427 44.527 C264.427 48.037 262.993 50.834 260.131 52.914 C257.268 54.992 253.456 56.033 248.698 56.033 C243.941 56.033 240.134 54.992 237.282 52.914 C234.429 50.834 233.002 48.037 233.002 44.527 C233.002 44.527 233.049 43.185 235.98 43.185 C238.847 43.185 239.005 44.527 239.005 44.527"/>
<path fill="#F9C059" d="M296.14 25.369 L277.755 25.369 C274.578 25.369 271.976 27.969 271.976 31.146 L271.976 56.035 L277.583 56.035 L277.583 33.567 C277.583 32.008 278.859 30.732 280.418 30.732 L293.479 30.732 C295.038 30.732 296.314 32.008 296.314 33.567 L296.314 56.035 L301.919 56.035 L301.919 31.146 C301.919 27.969 299.32 25.369 296.14 25.369"/>
<path fill="#F9C059" fill-rule="evenodd" d="M240.938 16.025 C240.771 18.088 239.975 19.986 237.81 21.107 C237.622 21.207 237.485 21.625 237.506 21.879 C237.731 24.511 237.994 27.14 238.244 29.769 C238.491 32.377 238.762 34.982 238.979 37.591 C239.13 39.414 237.76 40.857 236.003 40.812 C234.286 40.765 233.031 39.281 233.229 37.48 C233.798 32.367 234.38 27.254 234.974 22.144 C235.039 21.589 234.947 21.295 234.361 21.074 C233.287 20.67 232.581 19.81 232.032 18.822 C230.74 16.494 231.12 13.244 232.909 11.373 C234.877 9.312 237.807 9.449 239.572 11.691 C240.518 12.896 240.897 14.293 240.938 16.025"/>
<path fill="#F9C059" fill-rule="evenodd" d="M260.462 21.383 C258.851 20.895 257.638 20.01 257.069 18.44 C256.87 17.887 256.735 17.283 256.722 16.699 C256.679 14.84 256.702 12.979 256.707 11.117 C256.708 10.377 257.062 9.934 257.644 9.914 C258.252 9.897 258.636 10.356 258.638 11.129 C258.642 12.576 258.634 14.024 258.642 15.471 C258.645 16.211 259.011 16.651 259.597 16.652 C260.183 16.656 260.562 16.215 260.566 15.485 C260.572 14.08 260.566 12.68 260.567 11.279 C260.568 10.375 260.909 9.902 261.55 9.914 C262.186 9.926 262.5 10.389 262.501 11.311 C262.501 12.69 262.497 14.068 262.503 15.448 C262.506 16.196 262.853 16.635 263.435 16.652 C264.042 16.672 264.425 16.215 264.427 15.438 C264.433 13.992 264.425 12.543 264.431 11.096 C264.435 10.363 264.804 9.92 265.39 9.914 C265.976 9.908 266.358 10.356 266.36 11.08 C266.366 12.965 266.402 14.85 266.351 16.733 C266.295 18.785 265.286 20.256 263.396 21.071 C262.974 21.254 262.876 21.467 262.917 21.889 C263.362 26.461 263.792 31.033 264.228 35.606 C264.29 36.268 264.374 36.93 264.417 37.594 C264.532 39.399 263.235 40.818 261.506 40.805 C259.779 40.789 258.47 39.328 258.659 37.537 C259.067 33.703 259.518 29.871 259.948 26.039 C260.122 24.492 260.29 22.943 260.462 21.383"/>
<path fill="#F9E8AF" d="M238.591 19.412 L238.779 19.013 C238.837 18.877 238.917 18.75 238.964 18.613 L239.091 18.203 C239.127 18.064 239.187 17.939 239.203 17.797 C239.241 17.512 239.293 17.234 239.319 16.955 L239.335 16.115 L239.34 15.826 L239.648 15.806 L239.652 15.806 L239.339 16.119 C239.335 16.094 239.333 16.066 239.333 16.041 L239.652 16.359 L239.648 16.359 L239.378 16.377 L239.329 16.045 L239.219 15.289 C239.186 15.038 239.084 14.803 239.023 14.56 C238.97 14.314 238.829 14.103 238.738 13.874 C238.653 13.639 238.499 13.448 238.366 13.246 C238.247 13.029 238.065 12.875 237.902 12.704 C237.754 12.512 237.542 12.411 237.361 12.27 C237.183 12.115 236.949 12.093 236.752 11.989 C236.652 11.933 236.534 11.956 236.428 11.933 L236.266 11.912 L236.184 11.9 L236.144 11.894 L236.123 11.891 L236.112 11.889 L236.108 11.889 L236.106 11.888 C236.134 11.886 236.038 11.891 236.168 11.883 C235.915 11.924 235.607 11.93 235.398 12 C235.22 12.109 235.03 12.111 234.844 12.269 C234.661 12.409 234.452 12.512 234.3 12.699 C234.137 12.871 233.953 13.025 233.834 13.242 C233.701 13.445 233.546 13.637 233.461 13.871 C233.368 14.1 233.224 14.31 233.173 14.558 C233.111 14.801 233.009 15.036 232.976 15.287 L232.861 16.044 L232.813 16.36 L232.558 16.344 L232.555 16.344 L232.858 16.041 L232.853 16.119 L232.555 15.822 L232.558 15.822 L232.853 15.842 L232.855 16.116 L232.863 16.896 C232.881 17.156 232.925 17.416 232.955 17.68 C232.971 17.813 233.021 17.935 233.052 18.065 L233.158 18.452 C233.255 18.699 233.362 18.948 233.466 19.203 C233.311 18.983 233.129 18.769 232.987 18.529 L232.806 18.156 C232.749 18.029 232.674 17.906 232.633 17.773 C232.551 17.508 232.454 17.24 232.384 16.965 L232.261 16.123 L232.558 16.417 L232.555 16.418 L232.278 16.435 L232.257 16.119 L232.252 16.041 L232.234 15.759 L232.555 15.738 L232.558 15.737 L232.255 16.037 L232.279 15.188 C232.291 14.904 232.375 14.628 232.422 14.345 C232.46 14.058 232.59 13.795 232.686 13.521 C232.773 13.243 232.94 12.998 233.088 12.744 C233.221 12.479 233.432 12.264 233.629 12.037 C233.808 11.793 234.084 11.637 234.326 11.451 C234.554 11.256 234.922 11.162 235.222 11.033 C235.523 10.943 235.764 10.943 236.037 10.893 L236.107 10.889 L236.111 10.889 L236.117 10.891 L236.132 10.892 L236.161 10.895 L236.221 10.902 L236.339 10.917 L236.575 10.949 C236.73 10.982 236.898 10.974 237.039 11.045 C237.32 11.178 237.644 11.251 237.88 11.449 C238.123 11.635 238.398 11.793 238.58 12.033 C238.778 12.26 238.989 12.476 239.123 12.74 C239.272 12.995 239.439 13.24 239.526 13.519 C239.623 13.791 239.757 14.055 239.793 14.342 C239.84 14.625 239.925 14.902 239.937 15.187 L239.966 16.037 L239.648 15.722 L239.652 15.722 L240.014 15.746 L239.97 16.041 C239.966 16.066 239.964 16.094 239.964 16.119 L239.97 16.453 L239.652 16.433 L239.648 16.431 L239.96 16.123 L239.824 17.033 C239.799 17.183 239.734 17.326 239.69 17.472 L239.544 17.902 C239.5 18.046 239.409 18.18 239.345 18.315 L239.134 18.716 C239.063 18.846 238.96 18.953 238.869 19.069 L238.591 19.412"/>
<path fill="#F9E8AF" d="M288.776 13.844 C288.776 13.844 289.641 13.841 290.851 14.289 C291.158 14.389 291.472 14.539 291.808 14.694 C292.13 14.872 292.489 15.037 292.816 15.274 C293.152 15.5 293.503 15.733 293.818 16.02 C294.153 16.285 294.448 16.604 294.755 16.909 C295.055 17.221 295.299 17.582 295.569 17.91 C295.821 18.254 296.016 18.627 296.231 18.967 C296.426 19.321 296.573 19.685 296.726 20.018 C296.89 20.348 296.962 20.696 297.064 20.996 C297.274 21.6 297.33 22.135 297.388 22.5 C297.433 22.865 297.46 23.075 297.46 23.075 C297.46 23.075 297.364 22.887 297.197 22.556 C297.121 22.391 297.027 22.192 296.92 21.961 C296.828 21.729 296.671 21.487 296.532 21.213 C296.377 20.948 296.251 20.641 296.057 20.35 C295.873 20.056 295.679 19.746 295.479 19.425 C295.042 18.811 294.572 18.164 294.019 17.586 C293.483 16.996 292.895 16.453 292.304 15.989 C291.716 15.52 291.13 15.121 290.606 14.806 C289.56 14.17 288.776 13.844 288.776 13.844"/>
<path fill="#7DDD62" d="M66 33 C66 51.226 51.226 66 33 66 C14.774 66 0 51.226 0 33 C0 14.775 14.774 0 33 0 C51.226 0 66 14.775 66 33"/>
<path fill="#FFFFFF" d="M59.188 22.475 C54.797 11.192 43.244 4.293 31.328 4.83 C19.588 5.359 9.567 13.725 6.01 24.728 C1.99 37.173 7.823 50.739 18.787 57.377 C18.871 57.426 18.957 57.475 19.041 57.524 C19.058 57.535 19.077 57.533 19.094 57.541 C19.115 57.549 19.134 57.555 19.153 57.562 C19.438 57.672 19.703 57.606 19.891 57.434 C20.021 57.336 20.106 57.188 20.145 57 C20.148 56.986 20.152 56.971 20.156 56.956 C20.16 56.926 20.175 56.904 20.176 56.871 C20.353 52.134 20.528 47.395 20.705 42.656 C20.84 42.785 21.021 42.868 21.219 42.868 L23.041 42.868 C24.014 42.868 24.014 41.358 23.041 41.358 L21.973 41.358 C21.97 38.205 21.967 35.053 21.964 31.901 L23.041 31.901 C24.014 31.901 24.014 30.393 23.041 30.393 L21.963 30.393 C21.959 28.287 21.958 26.181 21.957 24.074 C21.955 23.367 21.954 22.659 21.953 21.952 C22.264 21.921 22.574 21.871 22.819 21.749 C23.51 21.407 23.158 20.342 22.438 20.343 C21.953 20.343 21.47 20.418 20.999 20.526 C20.885 20.551 20.792 20.615 20.708 20.691 C20.684 20.708 20.667 20.729 20.646 20.749 C20.618 20.783 20.592 20.817 20.568 20.855 C20.541 20.897 20.515 20.94 20.496 20.991 C20.464 21.076 20.443 21.164 20.443 21.254 C20.45 28.014 20.458 34.774 20.464 41.533 C20.377 41.459 20.281 41.396 20.172 41.352 C12.606 38.284 12.411 26.908 18.941 22.679 C19.754 22.153 18.999 20.845 18.178 21.375 C11.14 25.934 10.478 39.039 19.079 42.526 C19.176 42.566 19.23 41.739 19.2 42.561 C19.178 43.133 19.156 43.706 19.135 44.28 C19.075 45.912 19.014 47.543 18.953 49.176 C18.875 51.292 18.796 53.409 18.718 55.525 C8.907 49.1 4.275 37.347 7.244 25.9 C10.09 14.913 20.192 7.176 31.328 6.338 C42.246 5.518 52.406 11.944 57.171 21.608 C62.614 32.649 59.006 46.085 49.771 53.76 C49.676 51.187 49.58 48.615 49.484 46.042 C49.441 44.885 49.397 43.729 49.354 42.573 C49.733 42.418 50.11 42.264 50.488 42.11 C51.234 41.803 51.983 41.498 52.729 41.192 C53.046 41.063 53.283 40.83 53.283 40.464 L53.283 22.359 C53.283 22.116 53.145 21.812 52.91 21.707 C52.052 21.327 51.194 20.945 50.337 20.564 C49.832 20.338 49.202 20.595 49.202 21.215 L49.202 39.385 C49.202 40.358 50.71 40.358 50.71 39.385 L50.71 22.371 C51.02 22.509 51.329 22.646 51.637 22.784 C51.697 22.822 51.729 22.833 51.775 22.858 L51.775 24.242 L51.775 32.315 L51.775 39.584 C51.775 39.749 51.786 39.873 51.802 39.972 C51.746 39.983 51.684 40 51.608 40.032 C50.532 40.471 49.458 40.912 48.381 41.352 C48.074 41.477 47.813 41.715 47.828 42.079 C47.99 46.475 48.155 50.871 48.318 55.267 C48.321 55.35 48.344 55.431 48.375 55.51 C48.392 55.555 48.411 55.597 48.434 55.636 C48.47 55.697 48.516 55.751 48.564 55.801 C48.573 55.808 48.58 55.815 48.588 55.821 C48.821 56.041 49.161 56.137 49.453 55.918 C49.473 55.904 49.489 55.888 49.507 55.873 C49.562 55.841 49.61 55.803 49.653 55.756 C59.897 47.958 63.887 34.554 59.188 22.475"/>
<path fill="#FFFFFF" d="M43.794 41.428 C43.396 41.256 42.994 41.1 42.588 40.952 C42.415 40.888 42.239 40.831 42.065 40.771 C41.982 40.743 41.899 40.713 41.816 40.686 L41.816 39.423 L41.816 34.27 C41.816 33.859 41.473 33.516 41.062 33.516 L39.243 33.516 L39.243 27.825 L39.243 23.768 C39.243 22.291 39.232 22.981 40.489 22.344 C41.358 21.903 40.594 20.602 39.728 21.039 C39.183 21.317 38.645 21.604 38.108 21.898 C37.877 22.024 37.734 22.289 37.734 22.549 L37.734 34.27 C37.734 34.682 38.077 35.025 38.489 35.025 L40.307 35.025 L40.307 41.227 C40.307 41.324 40.328 41.412 40.361 41.496 C40.38 41.547 40.407 41.589 40.435 41.631 C40.455 41.66 40.474 41.688 40.498 41.714 C40.523 41.74 40.544 41.769 40.573 41.791 C40.58 41.797 40.589 41.8 40.596 41.806 C40.675 41.869 40.761 41.922 40.861 41.954 C41.459 42.146 42.055 42.349 42.64 42.579 C42.447 47.756 42.255 52.932 42.063 58.11 C37.821 59.558 33.471 60.021 29.007 59.416 C28.673 59.372 26.508 58.548 26.542 59.477 C26.537 59.35 26.532 59.225 26.528 59.098 C26.509 58.588 26.49 58.079 26.471 57.57 C26.356 54.479 26.241 51.388 26.126 48.297 C26.067 46.731 26.009 45.164 25.951 43.598 C25.934 43.127 25.916 42.655 25.898 42.184 C25.931 43.04 27.671 41.586 28.122 41.243 C30.487 39.447 31.739 36.572 32.243 33.727 C32.395 32.87 32.437 31.977 32.392 31.077 C32.331 28.743 31.524 26.293 30.124 24.317 C29.788 23.835 29.412 23.388 29.006 22.972 C29.005 22.971 29.005 22.971 29.004 22.97 C28.811 22.772 28.609 22.584 28.401 22.404 C28.38 22.385 28.359 22.368 28.338 22.35 C28.146 22.186 27.948 22.031 27.744 21.883 C27.69 21.844 27.634 21.808 27.58 21.77 C27.399 21.646 27.217 21.525 27.027 21.414 C26.915 21.348 26.799 21.291 26.684 21.23 C26.538 21.154 26.395 21.074 26.244 21.005 C25.965 20.877 25.679 20.763 25.384 20.666 C24.913 20.512 24.429 20.92 24.429 21.394 L24.429 40.207 C24.429 41.18 25.938 41.18 25.938 40.207 L25.938 22.507 C33.192 25.911 32.103 38.447 24.94 41.352 C24.633 41.477 24.372 41.717 24.386 42.079 C24.602 47.887 24.817 53.696 25.034 59.504 C25.038 59.605 25.065 59.702 25.104 59.793 C25.113 59.815 25.124 59.833 25.135 59.853 C25.228 60.032 25.38 60.178 25.588 60.231 C31.433 61.703 37.326 61.441 42.997 59.389 C43.112 59.347 43.206 59.287 43.281 59.215 C43.434 59.094 43.542 58.91 43.551 58.661 C43.755 53.198 43.957 47.735 44.161 42.272 C44.162 42.24 44.149 42.219 44.148 42.19 C44.237 41.901 44.163 41.587 43.794 41.428"/>
<path fill="#FFFFFF" d="M47.701 39.956 C47.807 39.837 47.884 39.685 47.884 39.479 L47.884 21.596 C47.884 20.623 46.375 20.623 46.375 21.596 L46.375 38.725 L45.31 38.725 L45.31 21.5 C45.31 20.527 43.802 20.527 43.802 21.5 L43.802 39.479 C43.802 39.891 44.144 40.234 44.555 40.234 L47.13 40.234 C47.338 40.234 47.493 40.156 47.612 40.047 C47.628 40.035 47.644 40.025 47.659 40.013 C47.659 40.012 47.66 40.011 47.661 40.01 C47.677 39.993 47.687 39.974 47.701 39.956"/>
</svg>